<mxfile host="app.diagrams.net" modified="2023-12-07T04:10:01.014Z" agent="Mozilla/5.0 (Windows NT 10.0; Win64; x64) AppleWebKit/537.36 (KHTML, like Gecko) Chrome/119.0.0.0 Safari/537.36" version="22.1.7" etag="jlMWnodAipAPMaEXIUkw" type="github">
  <diagram name="第 1 页" id="lwlOk_2or9e5DJY-2Te8">
    <mxGraphModel>
      <root>
        <mxCell id="0" />
        <mxCell id="1" parent="0" />
      </root>
    </mxGraphModel>
  </diagram>
</mxfile>
